{"title":"Ice Age Collision Course (2016) HDRip 720p Hindi(Clean) English","uid":15689777,"size":982245885,"categoryP":"video","categoryS":"movies","magnet":"?xt=urn:btih:d913168a87c8d6a9ee323b5295e3ad9491b854c0&amp;dn=Ice+Age+Collision+Course+%282016%29+HDRip+720p+Hindi%28Clean%29+English&amp;tr=udp%3A%2F%2Ftracker.leechers-paradise.org%3A6969&amp;tr=udp%3A%2F%2Fzer0day.ch%3A1337&amp;tr=udp%3A%2F%2Fopen.demonii.com%3A1337&amp;tr=udp%3A%2F%2Ftracker.coppersurfer.tk%3A6969&amp;tr=udp%3A%2F%2Fexodus.desync.com%3A6969","seeders":29,"leechers":10,"uploader":"Palash995","files":1,"time":1472390562,"description":"Ice.Age.Collision.Course.(2016).720p.HDRip..x264.Dual.Audio.[Hindi.(Cleaned).-English]\r\n \nhttp://i.imgur.com/niclzSj.jpg\r\n\r\nRatings: 5.8/10 \r\nDirected By:  Mike Thurmeier, Galen T. Chu\r\nReleased On: 1 July 2016 (UK)\r\nGenre(s): Animation, Adventure, Comedy\r\nMovie Star Cast:  Ray Romano, Denis Leary, John Leguizamo\r\n \nhttp://www.imdb.com/title/tt3416828/\r\n\r\nScreenshots:-\r\n \nhttp://i.imgur.com/mbyV2LZ.jpg\r\n \nhttp://i.imgur.com/PS3nQm6.jpg\r\n \nhttp://i.imgur.com/N2rN8bh.jpg\r\n \nhttp://i.imgur.com/nBtHu7k.jpg\r\n\r\nManny, Diego, and Sid join up with Buck to fend off a meteor strike that would destroy the world.\r\n\r\nComplete name                            : Ice Age Collision Course (2016)\r\nFormat                                   : Matroska\r\nFormat version                           : Version 4 / Version 2\r\nFile size                                : 937 MiB\r\nDuration                                 : 1 h 34 min\r\nOverall bit rate                         : 1 388 kb/s\r\n\r\nVideo\r\nID                                       : 1\r\nFormat                                   : AVC\r\nFormat/Info                              : Advanced Video Codec\r\nFormat profile                           :   \r\nFormat settings, CABAC                   : Yes\r\nFormat settings, ReFrames                : 5 frames\r\nCodec ID                                 : V_MPEG4/ISO/AVC\r\nDuration                                 : 1 h 34 min\r\nBit rate                                 : 1 194 kb/s\r\nWidth                                    : 1 280 pixels\r\nHeight                                   : 720 pixels\r\nDisplay aspect ratio                     : 16:9\r\nFrame rate mode                          : Constant\r\nFrame rate                               : 23.976 (24000/1001) FPS\r\nColor space                              : YUV\r\nChroma subsampling                       : 4:2:0\r\nBit depth                                : 8 bits\r\nScan type                                : Progressive\r\nBits/(Pixel*Frame)                       : 0.054\r\nStream size                              : 806 MiB (86%)\r\nDefault                                  : Yes\r\nForced                                   : No\r\n\r\nAudio #1\r\nID                                       : 2\r\nFormat                                   : AAC\r\nFormat/Info                              : Advanced Audio Codec\r\nFormat profile                           : HE-AAC / LC\r\nCodec ID                                 : A_AAC\r\nDuration                                 : 1 h 34 min\r\nBit rate                                 : 64.0 kb/s\r\nChannel(s)                               : 2 channels\r\nChannel positions                        : Front: L R\r\nSampling rate                            : 48.0 kHz / 24.0 kHz\r\nFrame rate                               : 23.438 FPS (1024 spf)\r\nCompression mode                         : Lossy\r\nDelay relative to video                  : 31 ms\r\nStream size                              : 43.2 MiB (5%)\r\nTitle                                    : 7Star\r\nLanguage                                 : English\r\nDefault                                  : Yes\r\nForced                                   : No\r\n\r\nAudio #2\r\nID                                       : 4\r\nFormat                                   : MPEG Audio\r\nFormat version                           : Version 1\r\nFormat profile                           : Layer 3\r\nMode                                     : Joint stereo\r\nMode extension                           : MS Stereo\r\nCodec ID                                 : A_MPEG/L3\r\nCodec ID/Hint                            : MP3\r\nDuration                                 : 1 h 34 min\r\nBit rate mode                            : Constant\r\nBit rate                                 : 128 kb/s\r\nChannel(s)                               : 2 channels\r\nSampling rate                            : 44.1 kHz\r\nFrame rate                               : 38.281 FPS (1152 spf)\r\nCompression mode                         : Lossy\r\nStream size                              : 86.4 MiB (9%)\r\nTitle                                    : 7Star\r\nWriting library                          : LAME3.98.2\r\nLanguage                                 : hindi\r\nDefault                                  : No\r\nForced                                   : No\r\n\r\nText\r\nID                                       : 3\r\nFormat                                   : UTF-8\r\nCodec ID                                 : S_TEXT/UTF8\r\nCodec ID/Info                            : UTF-8 Plain Text\r\nDuration                                 : 21 min\r\nBit rate                                 : 0 b/s\r\nCount of elements                        : 4\r\nStream size                              : 140 Bytes (0%)\r\nDefault                                  : Yes\r\nForced                                   : No\r\n\r\nSource : 7Star..thanks","torrent":{"xt":"urn:btih:d913168a87c8d6a9ee323b5295e3ad9491b854c0","amp;dn":"Ice+Age+Collision+Course+%282016%29+HDRip+720p+Hindi%28Clean%29+English","amp;tr":["udp%3A%2F%2Ftracker.leechers-paradise.org%3A6969","udp%3A%2F%2Fzer0day.ch%3A1337","udp%3A%2F%2Fopen.demonii.com%3A1337","udp%3A%2F%2Ftracker.coppersurfer.tk%3A6969","udp%3A%2F%2Fexodus.desync.com%3A6969"],"infoHash":"d913168a87c8d6a9ee323b5295e3ad9491b854c0","infoHashBuffer":{"type":"Buffer","data":[217,19,22,138,135,200,214,169,238,50,59,82,149,227,173,148,145,184,84,192]},"announce":[],"urlList":[]}}